<svg xmlns="http://www.w3.org/2000/svg" viewBox="0 0 500 500"><g id="freepik--background-complete--inject-65"><rect x="382.01" y="76.05" width="37.98" height="11.19" transform="translate(802.01 163.29) rotate(180)" style="fill:#ebebeb"></rect><path d="M403.2,61.94c6.33-.1,22.29-.36,28.41-.42l9.57,0h.46v.46l0,11.19v.5h-.5l-19-.07c-4.73,0-14.26-.14-19-.21H403v-.22l.22-11.19Zm0,0,.23,11.19-.23-.23c4.74-.06,14.26-.16,19-.2l19-.07-.5.5.05-11.19.45.46-9.41,0c-6-.06-22.34-.31-28.57-.41Z" style="fill:#ebebeb"></path><path d="M360.82,61.94c6.33-.1,22.3-.36,28.41-.42l9.58,0h.45v.46l0,11.19v.5h-.5l-19-.07c-4.73,0-14.27-.14-19-.21h-.23v-.22l.22-11.19Zm0,0,.23,11.19-.23-.23c4.74-.06,14.26-.16,19-.2l19-.07-.5.5,0-11.19.46.46-9.42,0c-6-.06-22.34-.31-28.57-.41Z" style="fill:#ebebeb"></path><path d="M58.82,61.94c6.32-.1,22.29-.36,28.4-.42l9.58,0h.46v.46l0,11.19v.5h-.5l-19-.07c-4.73,0-14.26-.14-19-.21h-.23v-.22l.23-11.19Zm0,0L59,73.13l-.22-.23c4.74-.06,14.25-.16,19-.2l19-.07-.5.5,0-11.19.46.46-9.42,0c-6-.06-22.34-.31-28.56-.41Z" style="fill:#ebebeb"></path><rect x="80" y="316.63" width="37.98" height="11.19" transform="translate(197.99 644.44) rotate(180)" style="fill:#ebebeb"></rect><path d="M58.82,302.52c6.32-.1,22.29-.36,28.4-.42l9.58,0h.46v.46l0,11.19v.5h-.5l-19-.07c-4.73,0-14.26-.14-19-.21h-.23v-.22l.23-11.19Zm0,0L59,313.71l-.22-.23c4.74-.06,14.25-.16,19-.2l19-.07-.5.5,0-11.19.46.46-9.42-.05c-6-.06-22.34-.31-28.56-.41Z" style="fill:#ebebeb"></path><path d="M403.2,316.61c6.33-.1,22.29-.35,28.41-.41l9.57,0h.46v.46l0,11.19v.51h-.5l-19-.07c-4.73,0-14.26-.14-19-.2H403v-.23l.22-11.19Zm0,0,.23,11.19-.23-.22c4.74-.07,14.26-.17,19-.21l19-.06-.5.49.05-11.19.45.46-9.41,0c-6-.06-22.34-.32-28.57-.42Z" style="fill:#ebebeb"></path><rect x="141.67" y="166.93" width="37.98" height="11.19" transform="translate(321.32 345.06) rotate(180)" style="fill:#ebebeb"></rect><rect x="275.19" y="231.14" width="37.98" height="11.19" style="fill:#ebebeb"></rect><path d="M292,256.44c-6.33.1-22.29.36-28.41.42l-9.57,0h-.46v-.46l0-11.19v-.5H254l19,.07c4.72,0,14.26.14,19,.21h.23v.22L292,256.44Zm0,0-.23-11.19.23.23c-4.74.06-14.26.16-19,.2l-19,.07.49-.5,0,11.19L254,256l9.41,0c6,.06,22.34.31,28.57.41Z" style="fill:#ebebeb"></path><rect x="159.76" y="127.01" width="145.6" height="6.25" style="fill:#ebebeb"></rect><polygon points="180.93 157.87 175.26 157.87 172.98 133.26 180.93 133.26 180.93 157.87" style="fill:#ebebeb"></polygon><polygon points="284.19 157.87 289.86 157.87 292.13 133.26 284.19 133.26 284.19 157.87" style="fill:#ebebeb"></polygon><polygon points="172.98 133.26 180.92 133.26 180.92 141.74 173.76 141.74 172.98 133.26" style="fill:#dbdbdb"></polygon><polygon points="292.13 133.26 291.35 141.74 284.19 141.74 284.19 133.26 292.13 133.26" style="fill:#dbdbdb"></polygon><path d="M201.82,93.6c-5.75,7.79-11.75,16.84-13.21,26.61,0,.15.22.2.25.05a57.14,57.14,0,0,1,2.55-7.82c3.78-1,7.49-1.9,9.48-5.66s1.77-8.89,1.38-13.1C202.25,93.46,201.94,93.45,201.82,93.6Z" style="fill:#ebebeb"></path><path d="M191.46,112.36A64.78,64.78,0,0,1,201.59,96s.07,0,0,.05a69.86,69.86,0,0,0-6.91,10.86c1.91-1.93,4-3.66,5.8-5.71a0,0,0,1,1,.06,0,31.6,31.6,0,0,1-6.09,6.08q-.93,1.74-1.89,3.48c.15-.09.31-.17.47-.25s.06,0,0,0c-.18.09-.35.19-.54.27l-.91,1.64C191.58,112.59,191.41,112.48,191.46,112.36Z" style="fill:#a6a6a6"></path><path d="M193.39,110.34a34.57,34.57,0,0,0,4.41-3s.1,0,.06,0a23.55,23.55,0,0,1-4.41,3C193.38,110.48,193.31,110.38,193.39,110.34Z" style="fill:#a6a6a6"></path><path d="M188,120.12a.11.11,0,0,0,.21,0c0-3.22,0-6.45.05-9.68.82-1.67,2.59-2.59,3.82-3.92a17,17,0,0,0,2.3-3.2A22.82,22.82,0,0,0,197,94.43c.34-3.44-1-14.8-2.42-14.41-.75.21-3.18,5.83-3.83,7.69a53.7,53.7,0,0,0-2.29,9.44A100.27,100.27,0,0,0,188,120.12Z" style="fill:#ebebeb"></path><path d="M188,106.24l0,0a72,72,0,0,1,1.95-12.13A40.78,40.78,0,0,1,194.12,82c0-.07.14,0,.11.06a44.6,44.6,0,0,0-3.37,9.26c.14-.23.32-.45.47-.66s.2,0,.14.08a5.38,5.38,0,0,1-.68,1l0,0c-.75,3-1.29,6.15-1.76,9.25l.11-.12s.06,0,0,0-.12.21-.18.31c-.23,1.57-.45,3.15-.67,4.7a22,22,0,0,0,6.55-8.7s0,0,0,0a18.07,18.07,0,0,1-6.62,9l-.18,1.26c0,.08-.15.06-.15,0,0-.37,0-.75,0-1.12A.08.08,0,0,1,188,106.24Z" style="fill:#a6a6a6"></path><path d="M189.27,100.34A64.45,64.45,0,0,0,195,90.49s.08,0,.07,0a31.71,31.71,0,0,1-5.68,9.9C189.33,100.48,189.23,100.4,189.27,100.34Z" style="fill:#a6a6a6"></path><path d="M192.12,89.7c.89-1.57,1.83-3.1,2.66-4.7a0,0,0,0,1,.07,0,24.21,24.21,0,0,1-2.59,4.74C192.2,89.86,192.07,89.79,192.12,89.7Z" style="fill:#a6a6a6"></path><path d="M191.78,90.39s0,0,0,0S191.76,90.39,191.78,90.39Z" style="fill:#a6a6a6"></path><path d="M186.4,111.87a32.21,32.21,0,0,1-.75,6.35c0,.23.07.45.1.69a30.32,30.32,0,0,0,1.13-7.07.19.19,0,0,0,0-.22h0a46.65,46.65,0,0,0-.71-9.58c-1-5.92-3.17-11.59-7.3-16a.29.29,0,0,0-.45.1c-1.67,4.23-1.09,9.28.33,13.5A24.62,24.62,0,0,0,182,106C183.45,108,185.25,109.7,186.4,111.87Z" style="fill:#ebebeb"></path><path d="M179.37,88a45.48,45.48,0,0,1,7,21.37c0,.13-.21.17-.23,0-.1-.67-.2-1.34-.31-2h0a25.5,25.5,0,0,1-4.44-5.12s0-.07.06,0a53.1,53.1,0,0,0,4.31,4.69c-.28-1.66-.62-3.29-1-4.9l-.31-.36c-.07-.08,0-.2.12-.12l.09.11a56.15,56.15,0,0,0-2-6.49,19.84,19.84,0,0,1-2.84-3.65,0,0,0,0,1,.06,0c.58.82,1.14,1.64,1.8,2.4.27.31.56.59.83.88a51.47,51.47,0,0,0-3.2-6.67C179.16,88,179.31,87.9,179.37,88Z" style="fill:#a6a6a6"></path><path d="M180.16,95.82c1.26,1.7,2.7,3.32,3.88,5.08,0,0,0,.1-.08.07a26,26,0,0,1-3.88-5.1C180,95.82,180.12,95.77,180.16,95.82Z" style="fill:#a6a6a6"></path><path d="M184.22,101.3l.05,0a0,0,0,0,1-.06.06l-.05-.06S184.18,101.26,184.22,101.3Z" style="fill:#a6a6a6"></path><path d="M172.64,98.59a19.43,19.43,0,0,0,4.13,9.68,10.26,10.26,0,0,0,3.34,2.61c1.45.72,3,1.54,4.47,2.13a29.73,29.73,0,0,1,1.58,5.62c.05-.17.1-.34.14-.5-1-8.27-6.31-15.33-13.15-19.87A.33.33,0,0,0,172.64,98.59Z" style="fill:#ebebeb"></path><path d="M175,101s0-.13.07-.09a27.94,27.94,0,0,1,8.72,10.74c.05.12-.1.22-.17.1-.32-.55-.64-1.1-1-1.63h0a9.29,9.29,0,0,1-4.2-2.43,0,0,0,1,1,0,0,10.08,10.08,0,0,0,2,1.39c.63.32,1.32.52,2,.78-.58-.92-1.18-1.8-1.81-2.65a18.2,18.2,0,0,1-4.69-2.64,0,0,0,1,1,0-.07c1.44.86,2.86,1.62,4.36,2.33a37.21,37.21,0,0,0-3.08-3.59c-.53-.28-1.07-.57-1.58-.87,0,0,0-.09,0-.08a6.27,6.27,0,0,1,1.22.6C176.32,102.25,175.69,101.63,175,101Z" style="fill:#a6a6a6"></path><path d="M175.15,103.88a2.48,2.48,0,0,1,.26.19,0,0,0,1,1,0,0,1.43,1.43,0,0,1-.27-.15C175.06,103.93,175.1,103.85,175.15,103.88Z" style="fill:#a6a6a6"></path><polygon points="194.71 127.01 180.63 127.01 181.32 117.77 181.59 114.76 193.63 114.76 193.9 117.77 194.71 127.01" style="fill:#dbdbdb"></polygon><polygon points="193.9 117.77 181.32 117.77 181.59 114.76 193.63 114.76 193.9 117.77" style="fill:#c7c7c7"></polygon><rect x="180.62" y="112.29" width="13.96" height="3.09" style="fill:#dbdbdb"></rect><rect x="214.18" y="100.68" width="42.01" height="10.58" transform="translate(341.16 -129.21) rotate(90)" style="fill:#c7c7c7"></rect><rect x="232.88" y="79.74" width="4.62" height="10.58" transform="translate(320.22 -150.16) rotate(90)" style="fill:#dbdbdb"></rect><rect x="234.33" y="88.82" width="1.71" height="10.58" transform="translate(329.3 -141.08) rotate(90)" style="fill:#dbdbdb"></rect><rect x="232.88" y="113.87" width="4.62" height="10.58" transform="translate(354.35 -116.03) rotate(90)" style="fill:#dbdbdb"></rect><rect x="219.67" y="98.78" width="49.01" height="7.39" transform="translate(346.65 -141.7) rotate(90)" style="fill:#dbdbdb"></rect><rect x="234.72" y="89.79" width="18.85" height="4.44" transform="translate(336.15 -152.14) rotate(90)" style="fill:#ebebeb"></rect><rect x="256.01" y="103.37" width="49.01" height="7.39" transform="translate(156.27 -166.27) rotate(44.67)" style="fill:#c7c7c7"></rect><rect x="273.65" y="107.35" width="18.85" height="4.44" transform="translate(158.77 -167.35) rotate(44.67)" style="fill:#dbdbdb"></rect><rect x="235.53" y="102.1" width="37.23" height="12.56" transform="translate(362.52 -145.77) rotate(90)" style="fill:#a6a6a6"></rect><rect x="252.41" y="115.03" width="3.47" height="12.56" transform="translate(375.45 -132.84) rotate(90)" style="fill:#c7c7c7"></rect><rect x="253.47" y="110.34" width="1.35" height="12.56" transform="translate(370.77 -137.52) rotate(90)" style="fill:#c7c7c7"></rect><rect x="201.58" y="104.89" width="34.98" height="8.67" transform="translate(405.86 -49) rotate(113.23)" style="fill:#a6a6a6"></rect><rect x="212.65" y="116.05" width="3.26" height="8.67" transform="translate(409.43 -29.03) rotate(113.23)" style="fill:#c7c7c7"></rect><rect x="220.86" y="96.94" width="3.26" height="8.67" transform="translate(403.32 -63.21) rotate(113.24)" style="fill:#c7c7c7"></rect><rect x="220.08" y="101.07" width="1.26" height="8.67" transform="translate(404.64 -55.83) rotate(113.24)" style="fill:#c7c7c7"></rect></g><g id="freepik--Floor--inject-65"><path d="M40.1,453.69c134.47-.61,285.33-.62,419.8,0-134.47.62-285.33.61-419.8,0Z" style="fill:#263238"></path></g><g id="freepik--Character--inject-65"><path d="M278.71,453.34c2.52.87,74.9,1.42,77.67-.31,1.05-.65,1.75-11.18,2.23-23.94.1-2.75.19-5.59.27-8.48L362.21,382l-48.38-.51-2,38.59.15,8.5s-27.81,12.18-30.64,14.4S276.19,452.48,278.71,453.34Z" style="fill:#ad6359"></path><path d="M278.71,453.34c2.52.87,74.9,1.42,77.67-.31,1.28-.79,2-16.18,2.5-32.42l-47.08-.5.15,8.5s-27.81,12.18-30.64,14.4S276.19,452.48,278.71,453.34Z" style="fill:#fff"></path><path d="M278.71,453.34c2.52.87,74.9,1.42,77.67-.31,1.05-.65,1.75-11.18,2.23-23.94L312,428.61s-27.81,12.18-30.64,14.4S276.19,452.48,278.71,453.34Z" style="fill:#263238"></path><path d="M279.77,450.46c12.14-.21,61.1.1,73.11.82.09,0,.09.07,0,.08-12,.47-61-.25-73.11-.71C279.51,450.64,279.52,450.46,279.77,450.46Z" style="fill:#FF2727"></path><path d="M307.23,429.78c4.86,0,10.48,1.72,13.46,5.72.12.15-.1.31-.25.24a66.73,66.73,0,0,0-13.3-5.37A.3.3,0,0,1,307.23,429.78Z" style="fill:#FF2727"></path><path d="M303.47,431.21c4.86,0,10.48,1.73,13.46,5.72.12.15-.1.32-.25.24a67.46,67.46,0,0,0-13.29-5.36A.31.31,0,0,1,303.47,431.21Z" style="fill:#FF2727"></path><path d="M299.71,432.64c4.86,0,10.48,1.73,13.46,5.72.12.16-.1.32-.25.24a67.46,67.46,0,0,0-13.29-5.36A.31.31,0,0,1,299.71,432.64Z" style="fill:#FF2727"></path><path d="M428.36,205.14s-57.51,99.3-58.6,106.09c-1.68,10.44-7.63,107.36-7.63,107.36l-52.06-1.19s5.46-81.48,13.17-111.59c5.55-21.69,50.7-95.27,50.7-95.27Z" style="fill:#37474f"></path><path d="M313.58,407.45c7.95,0,36.12,0,46.69,1.15.08,0,.07.15,0,.16-3.64.52-38.74-.72-46.69-1.08A.12.12,0,0,1,313.58,407.45Z" style="fill:#263238"></path><path d="M353.7,403.45c2.19-30.43,4.35-66.16,7.37-96.41,7.92-16.72,17.51-32.59,26.44-48.78,6.21-11,18.91-33,25.28-43.91l-24.6,44.29c-8.16,14.78-16.48,29.5-24.22,44.48-.85,1.89-2.1,3.57-2.21,5.69-2.65,29.67-5.38,64.91-8.06,94.64Z" style="fill:#263238"></path><path d="M384.49,454.2c2.67,0,73.18-23.29,75.27-25.8a1,1,0,0,0,.14-.51c.14-2.36-4.07-10.94-7.33-22-.21-.71-1.77-4.05-3.94-8.55-6-12.37-16.6-33.58-16.6-33.58L386,378.6l19.37,33.58,2.83,8s-22.5,20.38-24.49,23.38S381.83,454.18,384.49,454.2Z" style="fill:#ad6359"></path><path d="M384.49,454.2c2.67,0,73.18-23.29,75.27-25.8a1,1,0,0,0,.14-.51c.14-2.36-4.07-10.94-7.33-22-.21-.71-1.77-4.05-3.94-8.55l-43.29,14.88,2.83,8s-22.5,20.38-24.49,23.38S381.83,454.18,384.49,454.2Z" style="fill:#fff"></path><path d="M384.5,454.19c2.66,0,73.17-23.28,75.26-25.8.79-.95-1.66-10.53-7.19-22.54l-44.4,14.34s-22.5,20.38-24.49,23.38S381.83,454.17,384.5,454.19Z" style="fill:#263238"></path><path d="M384.59,451.12c11.44-4.05,58-19.28,69.59-22.41.09,0,.11,0,0,.07C443,433,396.3,447.9,384.65,451.31,384.4,451.38,384.35,451.21,384.59,451.12Z" style="fill:#FF2727"></path><path d="M404.07,422.8c4.59-1.57,10.48-1.69,14.58,1.15.16.11,0,.33-.16.31a67.3,67.3,0,0,0-14.32-.87A.3.3,0,0,1,404.07,422.8Z" style="fill:#FF2727"></path><path d="M401,425.35c4.59-1.57,10.48-1.69,14.58,1.15.16.11,0,.34-.16.31a67.3,67.3,0,0,0-14.32-.87A.3.3,0,0,1,401,425.35Z" style="fill:#FF2727"></path><path d="M397.85,427.9c4.59-1.57,10.48-1.69,14.58,1.15.16.11,0,.34-.16.31A66.64,66.64,0,0,0,398,428.5.31.31,0,0,1,397.85,427.9Z" style="fill:#FF2727"></path><path d="M397.76,409.94l49.66-17.84s-38.15-83.36-38.16-90.2c0-6.07,31.3-60.95,32.7-71,2.3-16.44-6.51-30.47-14.73-39l-53.29,18.62s4.9,9.11,13.19,14.55c0,0-30.57,59-30.3,77.77S397.76,409.94,397.76,409.94Z" style="fill:#37474f"></path><path d="M395.75,399.15c7.47-2.65,5.29-2,12.79-4.56,3.67-1.25,27.8-9.47,31.43-10,.08,0,.12.12,0,.16-3.25,1.7-27.52,9.5-31.21,10.68-7.55,2.42-5.41,1.64-13,4A.12.12,0,0,1,395.75,399.15Z" style="fill:#263238"></path><path d="M378.68,223.42a97.59,97.59,0,0,1,15.44,6.15.17.17,0,1,1-.12.31c-5.2-1.89-10.49-3.69-15.58-5.86A.33.33,0,0,1,378.68,223.42Z" style="fill:#263238"></path><path d="M385,221.69a21.35,21.35,0,0,1,1.15,2.86,6.38,6.38,0,0,1,.53,2.38c0,.15-.22.17-.31.07a7.92,7.92,0,0,1-1.16-2.28c-.39-.88-.79-1.76-1.15-2.65C383.78,221.47,384.69,221.12,385,221.69Z" style="fill:#263238"></path><path d="M384.66,216.77c-.27-.82-.54-1.63-.82-2.45s-.64-1.67-.87-2.53c0-.14-.25-.06-.21.08.27.82.42,1.68.62,2.52s.41,1.68.63,2.52c.41,1.56.93,3.11,1.49,4.63a5.76,5.76,0,0,1-2.46-.6,4.51,4.51,0,0,1-1.62-2.23c-.4-.92-.76-1.86-1.17-2.77a18.5,18.5,0,0,1-1.24-3.11c0-.13-.25-.06-.21.08a35,35,0,0,0,2.34,6.57c.43.83.76,1.68,1.62,2.05a7.51,7.51,0,0,0,2.94.39c.12,0,.29,0,.25-.18C385.59,220.08,385.18,218.39,384.66,216.77Z" style="fill:#263238"></path><path d="M386.2,227c-1.84,3.85-4,7.57-6,11.35s-3.76,7.44-5.54,11.2q-5.42,11.42-9.86,23.26c-1.46,3.9-2.84,7.84-4.1,11.81a87.71,87.71,0,0,0-3.21,12.13c-.69,4.14-.94,6.05-.31,10.21.92,6.08,9.6,33.21,14.24,41.75.15.28.63,0,.5-.27-3.36-7.9-14.68-38.07-13.83-46.58a90.59,90.59,0,0,1,3.23-14.45c1.21-4,2.55-8,4-11.95,2.83-7.78,6.08-15.38,9.4-23,1.86-4.25,3.84-8.44,5.72-12.67s3.75-8.61,5.92-12.75C386.45,227,386.25,226.89,386.2,227Z" style="fill:#263238"></path><path d="M425.19,216.63c-1-.11-2.4.32-6.67.29a23.07,23.07,0,0,1-3.52-.35,7.67,7.67,0,0,1-3.33-1.12,17.15,17.15,0,0,1-4-4.86,26.11,26.11,0,0,1-3-6.13c0-.13-.23-.05-.2.08.3,1.23.5,2.46.91,3.67a22.48,22.48,0,0,0,1.45,3.3c1,2,2.22,4.1,4.14,5.37s4.69,1.43,7,1.45c1.35,0,6.61-.46,7.27-1.25C425.41,216.94,425.38,216.65,425.19,216.63Z" style="fill:#263238"></path><path d="M435,381.83c-6.6-14.52-20.93-53.51-27.81-66.9-1.64-3.21-3.57-6.43-4.54-9.92-1.05-3.79-.08-7.34,1.33-10.89a184,184,0,0,1,9-19c3.32-6.2,6.85-12.27,10.34-18.38s7.1-12.11,9.84-18.53c2.62-6.13,3.89-12.58,2.63-19.21s-4.51-12.6-7.95-18.27c-.9-1.49-1.83-3-2.74-4.46-.07-.12-.24,0-.17.12,3.81,5.91,7.49,12.15,9.51,18.94a31.9,31.9,0,0,1,1.4,10.36A33.18,33.18,0,0,1,433.47,236c-2.47,6.44-6.08,12.45-9.48,18.42s-7,12.18-10.39,18.35a202.15,202.15,0,0,0-9.31,19.06c-1.21,2.91-2.55,5.94-2.69,9.14-.16,3.49,1.3,6.75,2.83,9.8,6.68,13.31,29.29,69.6,30.22,71.23C434.77,382.25,435.05,382.05,435,381.83Z" style="fill:#263238"></path><path d="M352.73,137.16c-9.7,24.43-16.34,43.2-14.2,49.78,5.08,15.62,14,11.91,15.28,11.13,9-5.35,13.4-42,13.11-60.78C366.67,120.5,357.9,124.12,352.73,137.16Z" style="fill:#FF2727"></path><path d="M348.66,198.91a8.26,8.26,0,0,0,5.15-.84c9-5.35,13.4-42,13.11-60.78-.1-6.77-1.58-10.22-3.66-11.07Z" style="opacity:0.1"></path><path d="M434.9,198.5c-.1.23-69.44,25.36-70.31,24.89-1.2-.66-11.24-73.06-5.52-91.53,1.43-4.62,10.17-10.43,15.45-8,15.31,6.92,20.86,15.24,26.42,21.68,4.13,4.78,10.06,13.3,15.8,22.15C426.23,182.23,435.22,197.67,434.9,198.5Z" style="fill:#FF2727"></path><path d="M376.3,140.23c-1.41,14.34-.75,31.14-1.29,50.62-.61,21.74.53,43.29.49,48-.05,6,30-7,29.42-11.06-.37-2.62-2.68-22.7-4.82-41s-8.06-36.95-11.54-49C384.54,123.79,377.33,129.66,376.3,140.23Z" style="fill:#ad6359"></path><path d="M375.26,229.19s-.15,2.13,0,12.54c.12,7.2,5,24.66,24,31.72,7.27,2.71,12.34-1.2,5.29-5.36-5-2.92-8.65-4.52-10-5.93,0,0,8.73-1.23,11.08-5.77a93.52,93.52,0,0,0,5.29-12.29,20.79,20.79,0,0,0-2.21-1.2s1-9.68-3.77-15.14Z" style="fill:#ad6359"></path><path d="M376.49,248.58c2.53,2.81,8,8.65,14.11,11.88,6.81,3.59,20.88,8.67,23.48,3.62,1.9-3.7-3.3-6.11-3.3-6.11s6.26.87,7.25-2.85c.9-3.39-3.24-5-3.24-5s3.89-.12,4.13-3.55c.29-4.14-7.91-3.2-11.23-7.63C406.94,237.92,376.49,248.58,376.49,248.58Z" style="fill:#ad6359"></path><path d="M393.19,252.64a30.65,30.65,0,0,0,17.46,5.42c.16,0,.23-.13.09-.16a75.26,75.26,0,0,1-17.51-5.32S393.16,252.62,393.19,252.64Z" style="fill:#263238"></path><path d="M397,245.88c2.62,1.69,10.7,4.9,17.74,4.36.16,0,.23-.14.08-.16a80.73,80.73,0,0,1-17.79-4.27S397,245.86,397,245.88Z" style="fill:#263238"></path><path d="M372.92,229.29l34.8-4.09s-4-33.1-5.7-44.37-10.36-37.13-14-46.34-10.07-6.46-12,4.11-1.44,45.89-1.67,47S372.92,229.29,372.92,229.29Z" style="fill:#FF2727"></path><path d="M389.91,220.55c-2.31.25-4.62.45-6.93.66-1.11.09-2.22.2-3.33.26s-2.42.23-3.62.21a.07.07,0,0,1,0-.13c1.17-.28,2.4-.38,3.58-.57s2.21-.31,3.31-.46c2.3-.3,4.6-.6,6.91-.84,4.62-.49,9.24-.85,13.88-1.16a.09.09,0,0,1,0,.18C399.12,219.39,394.53,220,389.91,220.55Z" style="fill:#263238"></path><path d="M407.55,223.8c-.64-7.79-4.46-41.33-6.52-50.56a259.79,259.79,0,0,0-8.75-27c2.29,8.05,6,19.23,8,27.21C402.43,182.67,407.55,223.8,407.55,223.8Z" style="fill:#263238"></path><path d="M396,157.13a22.48,22.48,0,0,0-.77-6.92,22.72,22.72,0,0,0,.77,6.92Z" style="fill:#263238"></path><path d="M373.11,222.73c.8-7.63,1.72-29,1.66-38.27,0-9.12,0-28.64.07-30-.43,8.25-.81,21.93-.86,30.08C373.93,193.82,373.11,222.73,373.11,222.73Z" style="fill:#263238"></path><path d="M373.54,157.56a50.27,50.27,0,0,1,1.08,6.32,12.7,12.7,0,0,1-1.08-6.32Z" style="fill:#263238"></path><path d="M365.64,142.41s8.86-12.74,16-13.84l7,4.17s2.09.27,2.46-1.09c.92-3.37-.21-10.88-7.54-14.5-6.72-3.31-18.6-.1-26.22,3.55-7.31,3.5-10.69,8.84-7.37,13.42S365.64,142.41,365.64,142.41Z" style="fill:#FF2727"></path><path d="M364.42,140.2s-10-4.62-11.67-8.19,5.18-8.58,9.75-10.9c7.07-3.6,12.26-4.09,17.22-.9S364.42,140.2,364.42,140.2Z" style="opacity:0.1"></path><path d="M366.19,140.08c2.87-1,6.71-8.46,7.3-13.78,0-.36-1.71-3.31-3.66-7-1.18-2.24-2.43-4.75-3.42-7.14L353,122a40.91,40.91,0,0,1,5.21,8.55,5.31,5.31,0,0,1,.3,1,.64.64,0,0,0,0,.17C359,133.68,361.71,141.57,366.19,140.08Z" style="fill:#ad6359"></path><path d="M360.1,131.15a10.67,10.67,0,0,1-1.58.55.61.61,0,0,0,0-.17,5.11,5.11,0,0,0-.3-1A41.11,41.11,0,0,0,353,122l12.47-9.08C366.42,117,368.08,127.65,360.1,131.15Z" style="fill:#263238"></path><path d="M362.08,93c3.5,4.87,5.93,21.52,3.26,26.32-3.88,7-12.88,10.54-19.46,5.27-6.38-5.1-9.18-26.86-5.94-31.49C344.71,86.23,356.92,85.77,362.08,93Z" style="fill:#ad6359"></path><path d="M339.81,106.39a9.41,9.41,0,0,1,.92-.75,1.85,1.85,0,0,1,1.07-.59.59.59,0,0,1,.58.46,1.49,1.49,0,0,1-.65,1.38,2.22,2.22,0,0,1-1.48.6A.65.65,0,0,1,339.81,106.39Z" style="fill:#263238"></path><path d="M351.49,104.15a9.25,9.25,0,0,0-1.16-.26,1.89,1.89,0,0,0-1.22,0,.61.61,0,0,0-.31.68,1.49,1.49,0,0,0,1.21.93,2.19,2.19,0,0,0,1.59-.13A.65.65,0,0,0,351.49,104.15Z" style="fill:#263238"></path><path d="M354.74,117.19c-.16.35-.28.81-.66,1a3.19,3.19,0,0,1-1.27.19s-.06.05,0,.07a1.58,1.58,0,0,0,1.61,0,1.24,1.24,0,0,0,.47-1.3C354.85,117.13,354.76,117.14,354.74,117.19Z" style="fill:#263238"></path><path d="M351.69,115.65a10.94,10.94,0,0,0-4.27,1c-.13,0-.45,0-.5-.13h0l-.49-2.4c-.28.23-1.7,1.33-1.78.87a58.12,58.12,0,0,1-1.24-11.79.11.11,0,0,1,.21,0c.77,3.58.91,7.27,1.62,10.88a6.81,6.81,0,0,1,1.66-1c.13,0,.39,2.56.52,2.93a6.54,6.54,0,0,1,4.37-.63C352.36,115.51,352.45,115.64,351.69,115.65Z" style="fill:#263238"></path><path d="M350.05,117.71c-.57,0-2.09-1.73-1.28-2.17A4.44,4.44,0,0,1,353,116c1.06.9-1.79,1-2.14,1.3S350.46,117.7,350.05,117.71Z" style="fill:#263238"></path><path d="M350.85,117.26a2,2,0,0,1-.17.15,1.59,1.59,0,0,1,1.13-2.06,3,3,0,0,1,1.19.59C354,116.85,351.2,116.94,350.85,117.26Z" style="fill:#ff9abb"></path><path d="M349.76,107.85s.1.05.11.09c.13,1.17.48,2.48,1.58,2.71,0,0,0,.07,0,.07C350.15,110.72,349.7,109,349.76,107.85Z" style="fill:#263238"></path><path d="M349.91,109.12a1.79,1.79,0,0,0,.52.79,1.31,1.31,0,0,0,1,.27,1.16,1.16,0,0,0,.83-.62,2.09,2.09,0,0,0,.21-.92,5.29,5.29,0,0,0-.05-.56A2.61,2.61,0,0,0,352,107a4.07,4.07,0,0,1,.09.84,6.36,6.36,0,0,1-.05.77c-.08.51-.3,1-.7,1s-.77-.21-1-.68a7.92,7.92,0,0,1-.56-1.53A3.71,3.71,0,0,0,349.91,109.12Z" style="fill:#263238"></path><path d="M343.07,108.88s-.08.07-.07.12c.27,1.14.38,2.49-.58,3.08,0,0,0,.08,0,.06C343.67,111.71,343.5,109.92,343.07,108.88Z" style="fill:#263238"></path><path d="M343.35,110.12a1.78,1.78,0,0,1-.22.92,1.34,1.34,0,0,1-.85.59,1.2,1.2,0,0,1-1-.3,1.93,1.93,0,0,1-.49-.8,3.63,3.63,0,0,1-.15-.54,2.52,2.52,0,0,1,0-1.16,4.46,4.46,0,0,0,.2.82,4.94,4.94,0,0,0,.31.7c.24.46.61.82,1,.72s.66-.46.73-1a8.05,8.05,0,0,0,0-1.63A3.72,3.72,0,0,1,343.35,110.12Z" style="fill:#263238"></path><path d="M338.66,100c.22-1.55.53-3.14,1.29-3.65s1.87,2,3.81,1.61c2.62-.52,3.36-4,7-4.79,4.52-1,7.7,1.66,9.83,9,1.89,6.51,5.88,6.35,5.88,6.35s-.86-15.4-6.23-19.07S345,86.13,340,92.4C338.11,94.69,338.66,100,338.66,100Z" style="fill:#263238"></path><path d="M363.06,106.87s1.95-6.23,4.67-5.69,2.37,8.79,0,10.66a2.89,2.89,0,0,1-4.17-.32Z" style="fill:#ad6359"></path><path d="M367.57,103.54a0,0,0,0,1,0,.07c-1.66,1.38-2.11,3.46-2.23,5.52a1.59,1.59,0,0,1,2.15-1.14c.06,0,0,.11,0,.12a1.77,1.77,0,0,0-1.68,1.18,7.86,7.86,0,0,0-.42,1.8c0,.2-.37.2-.37,0v0C364.22,108.61,365,104.61,367.57,103.54Z" style="fill:#263238"></path><path d="M343.54,89.41a23.74,23.74,0,0,1,5.71-4c2.35-1.13,10.3-3.13,12.68-2.2s5.31,8.07,5.71,9.12,2.09,7.67.28,10-5.71-8.55-10.62-11S343.54,89.41,343.54,89.41Z" style="fill:#FF2727"></path><path d="M343.53,89.42s8.86-.45,13.77,2,8.8,13.29,10.62,11c.8-1,1-2.22.81-4.08-1.56-3-4.52-7.57-8.35-10.12-3.58-2.39-8.43-2.58-13.21-1.56A26.64,26.64,0,0,0,343.53,89.42Z" style="opacity:0.1"></path><path d="M369.46,109.05c-1.19-2.85-6.78-9.68-11.4-13.12s-14.65-3-15.91-2.49c-3,1.22-3.24,2.94-3.82,2.82s1.34-4.69,2-5.5a10.63,10.63,0,0,1,3.94-2.52c1.36-.42,10-2.38,14.2.16s11.84,11.07,11.91,13.88c0,.68-.67,1.35-.64,2.3.05,1.25.25,2.65.17,3.56C369.89,108.88,369.56,109.3,369.46,109.05Z" style="fill:#FF2727"></path><path d="M356.67,94.16A16.23,16.23,0,0,0,358.2,92a11.36,11.36,0,0,0,1.11-2.43.05.05,0,0,1,.1,0,8.78,8.78,0,0,1-.88,2.6,7.3,7.3,0,0,1-1.74,2.09C356.71,94.35,356.61,94.23,356.67,94.16Z" style="fill:#263238"></path><path d="M368.51,106.12c0-.23.09-.47.12-.7a3.75,3.75,0,0,0,0-.82,6.56,6.56,0,0,1-.14-1.53,5.17,5.17,0,0,1,.36-1.2,2,2,0,0,0,.17-1.38c0-.06.08-.1.1,0a5.22,5.22,0,0,1-.22,2.59,9.21,9.21,0,0,0,.11,1.65,2.4,2.4,0,0,1-.37,1.48A.09.09,0,0,1,368.51,106.12Z" style="fill:#263238"></path><path d="M366.44,103.3a11.32,11.32,0,0,0,.49-1.26,11.7,11.7,0,0,0,.27-1.31c.06-.43.08-.87.13-1.3s.19-1,.22-1.53a.05.05,0,0,1,.1,0c0,.54,0,1.08,0,1.61a10.6,10.6,0,0,1-.16,1.38,6.19,6.19,0,0,1-.34,1.28,3.14,3.14,0,0,1-.66,1.15S366.43,103.33,366.44,103.3Z" style="fill:#263238"></path><path d="M364.43,100.8a8.89,8.89,0,0,0,1-2.33c.2-.8.36-1.61.51-2.42,0-.06.1-.06.1,0a10.51,10.51,0,0,1-.27,2.56,5.48,5.48,0,0,1-.43,1.17,6.09,6.09,0,0,1-.81,1.08S364.39,100.86,364.43,100.8Z" style="fill:#263238"></path><path d="M362.35,98.45a2.83,2.83,0,0,0,.52-1c.14-.41.27-.83.39-1.25s.25-.8.36-1.2a3,3,0,0,0,.17-1.25.05.05,0,0,1,.1,0,3.28,3.28,0,0,1,0,1.25,7.93,7.93,0,0,1-.28,1.37,11.68,11.68,0,0,1-.47,1.29,2.12,2.12,0,0,1-.73,1A.08.08,0,0,1,362.35,98.45Z" style="fill:#263238"></path><path d="M360.36,95.26c.18-.35.36-.71.51-1.08s.29-.74.42-1.12.28-.79.39-1.19a.05.05,0,1,1,.1,0,8.62,8.62,0,0,1-.18,1.24,9.8,9.8,0,0,1-.92,2.29,3.19,3.19,0,0,1-.72,1,.07.07,0,0,1-.11-.07A5.52,5.52,0,0,1,360.36,95.26Z" style="fill:#263238"></path><path d="M353.88,93.25a12.93,12.93,0,0,1,.54-1.34,12.64,12.64,0,0,1,.72-1.3,13,13,0,0,1,1.76-2.28s.11,0,.08,0c-1,1.65-2,3.25-3,4.91A0,0,0,1,1,353.88,93.25Z" style="fill:#263238"></path><path d="M351.27,91.34a6.29,6.29,0,0,1,.68-1.28,13.89,13.89,0,0,1,2-2.23s.12,0,.08.07c-.59.76-1.2,1.5-1.74,2.29a13.67,13.67,0,0,0-.76,1.21c-.22.42-.35.87-.56,1.3,0,0-.07,0-.07,0A3.67,3.67,0,0,1,351.27,91.34Z" style="fill:#263238"></path><path d="M348.46,91a6.53,6.53,0,0,1,.6-1.25,7.86,7.86,0,0,1,1.71-2c.05,0,.11,0,.07.08A14.47,14.47,0,0,0,349.32,90c-.23.38-.43.77-.64,1.15a12,12,0,0,1-.59,1.19s-.06,0-.06,0A7.34,7.34,0,0,1,348.46,91Z" style="fill:#263238"></path><path d="M346.21,90.14c.22-.36.47-.69.71-1a3.76,3.76,0,0,1,.82-.91c.05,0,.1,0,.07.07-.44.68-.86,1.36-1.29,2a10.66,10.66,0,0,0-.83,2.07s-.06,0-.06,0A3.89,3.89,0,0,1,346.21,90.14Z" style="fill:#263238"></path><path d="M343.86,90.4a6.45,6.45,0,0,1,1.54-1.87c.05,0,.11,0,.07.08a7.9,7.9,0,0,0-1.32,1.92,10.31,10.31,0,0,0-.82,2.21s-.08,0-.08,0A5.28,5.28,0,0,1,343.86,90.4Z" style="fill:#263238"></path><path d="M341.42,92.67a3.33,3.33,0,0,1,.11-.53,4.56,4.56,0,0,1,.38-1,10.85,10.85,0,0,1,1.23-1.83s.12,0,.08.06a8.83,8.83,0,0,0-1.11,1.84,6.8,6.8,0,0,0-.37,1,4.54,4.54,0,0,0-.12.5,2.77,2.77,0,0,1-.1.5.05.05,0,0,1-.1,0A1.68,1.68,0,0,1,341.42,92.67Z" style="fill:#263238"></path><path d="M339.72,93.42a6.06,6.06,0,0,1,.32-.84,6.59,6.59,0,0,1,.41-.79c.16-.26.33-.51.47-.78a.05.05,0,1,1,.09.06,4.87,4.87,0,0,0-.42.82l-.34.79c-.11.27-.23.53-.34.8a7.22,7.22,0,0,1-.33.81s-.09,0-.08,0A3.54,3.54,0,0,1,339.72,93.42Z" style="fill:#263238"></path><path d="M364.42,140.2s5.91-16.46,16.54-20l.65,8.37s-6.51,1.26-16,13.84Z" style="fill:#FF2727"></path><path d="M384.57,128.15a14.22,14.22,0,0,0-5.7,1.91,26.43,26.43,0,0,0-4.88,3.52,45.4,45.4,0,0,0-4.24,4.31l-1.92,2.35-1.8,2.43-.21.28-.3-.09a51.32,51.32,0,0,1-6.55-2.42,28.6,28.6,0,0,1-3.12-1.59,17.15,17.15,0,0,1-2.84-2,31.15,31.15,0,0,0,6.19,3c1.07.41,2.17.78,3.26,1.12s2.2.69,3.3,1l-.5.19,1.8-2.51c.63-.81,1.28-1.61,1.94-2.4s1.39-1.53,2.11-2.26,1.49-1.43,2.31-2.07a24.28,24.28,0,0,1,5.19-3.36c.46-.23.95-.41,1.43-.61s1-.33,1.48-.45A9.29,9.29,0,0,1,384.57,128.15Z" style="fill:#263238"></path><path d="M388.61,132.74a29.59,29.59,0,0,1-3.63-1.87,30.82,30.82,0,0,1-3.37-2.3,29.64,29.64,0,0,1,3.63,1.87A30.37,30.37,0,0,1,388.61,132.74Z" style="fill:#263238"></path><path d="M368.66,137.42a61.29,61.29,0,0,1,3.91,9.81c.73,2.35,2.25,11.09-.46,11.54s0-6.25-.54-10.94-2.66-7.62-3.59-10.26Z" style="fill:#FF2727"></path><g style="opacity:0.1"><path d="M368.66,137.42a61.29,61.29,0,0,1,3.91,9.81c.73,2.35,2.25,11.09-.46,11.54s0-6.25-.54-10.94-2.66-7.62-3.59-10.26Z"></path></g><path d="M360.33,139a55.42,55.42,0,0,0-2,9.38c-.28,2.21-.28,10.26,2.22,10.23s-1-5.59-1.23-9.86,1.19-7.22,1.61-9.72Z" style="fill:#FF2727"></path><g style="opacity:0.1"><path d="M360.33,139a55.42,55.42,0,0,0-2,9.38c-.28,2.21-.28,10.26,2.22,10.23s-1-5.59-1.23-9.86,1.19-7.22,1.61-9.72Z"></path></g><path d="M353.52,193.91c2.14-7.68.43-26.45-5.87-52.45-1-4.25-27.76-2.42-27.14,2.21.78,5.84,8.74,37.48,9.26,39.08C334.16,196.29,352.1,199,353.52,193.91Z" style="fill:#ad6359"></path><path d="M322.12,148.29s-4.5-10.2-5.21-16.29a39.35,39.35,0,0,1,2.86-18.63c2.61-6.36,13.34-19.94,17.79-17.53,4,2.17-7.64,15.5-7.64,15.5s9.65-15.55,14-12-10.05,18.21-10.05,18.21,10.27-15.75,14.2-11.42c3,3.28-9.34,17.33-9.34,17.33s8.92-13.48,12.12-10.24c3.54,3.58-7,17.26-7,17.26,6.75,9.6,6,16.93,4.9,22.09C348.49,153.79,322.12,148.29,322.12,148.29Z" style="fill:#ad6359"></path><path d="M326.24,116.5c1.07-1.87,2.13-3.76,3.36-5.53s2.53-3.49,3.91-5.13a36,36,0,0,1,6-5.88c-3.72,3.34-8.22,9.6-9.45,11.37s-2.55,3.46-3.78,5.22C326.27,116.6,326.21,116.55,326.24,116.5Z" style="fill:#263238"></path><path d="M332.53,121.06c1.47-2.33,2.84-4.69,4.41-7s3.24-4.25,4.95-6.39c.14-.16.18,0,.06.14-1.63,2.2-3,4.36-4.56,6.58s-3.29,4.39-4.8,6.66C332.56,121.13,332.51,121.09,332.53,121.06Z" style="fill:#263238"></path><path d="M337.24,125.94a60.88,60.88,0,0,1,7.55-10.11c.13-.16.17,0,0,.18-2.57,3.31-4.61,5.9-7.47,10C337.32,126.08,337.19,126,337.24,125.94Z" style="fill:#263238"></path><path d="M343.86,130.45a56.44,56.44,0,0,0,6.69-11.52c.52-1.49,1.07-3.14.61-4.68a1.46,1.46,0,0,0-2.2-1c-2.09,1.08-3.93,3.2-5.9,4.59l1.48-2.09c1.35-2.11,5-7.21,3.26-9.54-1.84-1.67-3.86.32-5.29,1.6l-1.73,1.49c1.69-2.43,3.88-5.15,3.86-8.23-.3-3.08-3.49-2.44-5.33-1a5.55,5.55,0,0,1,3.24-1.41c4.66.68,1.6,6.76,0,9.11l-.41-.37c1.6-1.6,3.93-3.64,6.12-1.67,2.29,2.65-1.57,8.11-3.14,10.46l-.5-.51a20.18,20.18,0,0,1,4.07-3,2.25,2.25,0,0,1,1.89-.1,3.18,3.18,0,0,1,1.36,3.24c-1,5.59-4.73,10.23-8.08,14.63Z" style="fill:#263238"></path><path d="M319.52,153.53l34.64-1.82s5.51,36.2,1.94,43.5c-4.15,8.45-22.45,5.22-27.75-12.86Z" style="fill:#FF2727"></path><path d="M323.41,161.61c14.65.73,27.5-.81,30.22-.87.13,0,.11-.21,0-.2-2.67.2-17.9,0-30.22.85C323.25,161.4,323.27,161.6,323.41,161.61Z" style="fill:#263238"></path><path d="M357.25,186.28c-.31-4.52-.59-9-.95-13.55s-.84-9-1.39-13.49c-.31-2.48-.75-4.77-1.12-7.24-1.31-.1-2.08,0-3.67-.08-.2,0-.19-.48,0-.48,1.74,0,4.31-.37,4.33-.25.79,4.46,1.3,9.29,1.79,13.79s.84,9.08,1,13.63c.1,2.56.11,5.11.05,7.67C357.32,186.32,357.25,186.32,357.25,186.28Z" style="fill:#263238"></path></g><g id="freepik--Plants--inject-65"><rect x="105.7" y="49.54" width="1" height="173.04" style="fill:#dbdbdb"></rect><path d="M108.22,49.54a2,2,0,1,1-2-2A2,2,0,0,1,108.22,49.54Z" style="fill:#a6a6a6"></path><polygon points="133.24 226.97 106.63 173.96 79.41 225.95 78.53 225.49 106.65 171.77 134.14 226.52 133.24 226.97" style="fill:#dbdbdb"></polygon><path d="M109,172.87a2.38,2.38,0,1,1-2.38-2.38A2.38,2.38,0,0,1,109,172.87Z" style="fill:#a6a6a6"></path><polygon points="133.59 225.72 132.64 240.74 130.37 276.49 82.27 276.49 80.01 240.74 79.05 225.72 133.59 225.72" style="fill:#FF2727"></polygon><polygon points="133.59 225.72 132.64 240.74 80.01 240.74 79.05 225.72 133.59 225.72" style="opacity:0.1"></polygon><rect x="75.75" y="220.91" width="61.14" height="11.66" style="fill:#FF2727"></rect><path d="M65.94,229.44c-1.83-2.58,5.21-5,9-2.92C75,226.52,68.51,233.06,65.94,229.44Z" style="fill:#455a64"></path><path d="M74.81,226.69a16.35,16.35,0,0,1-3.39,1.52,12.24,12.24,0,0,1-3.65.7l3.5-1.16C72.44,227.38,73.6,227,74.81,226.69Z" style="fill:#263238"></path><path d="M65.49,246.42c-3-1,1.23-7.14,5.57-7.69C71.06,238.73,69.71,247.82,65.49,246.42Z" style="fill:#455a64"></path><path d="M71,239a16.3,16.3,0,0,1-1.83,3.23,12.37,12.37,0,0,1-2.54,2.72l2.15-3C69.51,240.92,70.22,239.92,71,239Z" style="fill:#263238"></path><path d="M80.16,248.83c-.63,3.09-7.24-.38-8.31-4.62C71.85,244.21,81,244.47,80.16,248.83Z" style="fill:#455a64"></path><path d="M72.09,244.22a17.18,17.18,0,0,1,3.43,1.44,12.17,12.17,0,0,1,3,2.19l-3.24-1.77C74.21,245.49,73.13,244.9,72.09,244.22Z" style="fill:#263238"></path><path d="M85.26,260.11c-.63,3.09-7.24-.38-8.31-4.62C77,255.49,86.14,255.75,85.26,260.11Z" style="fill:#455a64"></path><path d="M77.19,255.5a16.91,16.91,0,0,1,3.43,1.43,12.47,12.47,0,0,1,3,2.2l-3.24-1.77C79.31,256.77,78.23,256.18,77.19,255.5Z" style="fill:#263238"></path><path d="M90.68,273.93c-.63,3.09-7.24-.38-8.31-4.62C82.37,269.31,91.57,269.57,90.68,273.93Z" style="fill:#455a64"></path><path d="M82.61,269.32A16.94,16.94,0,0,1,86,270.76,12.17,12.17,0,0,1,89,273l-3.23-1.77C84.73,270.59,83.66,270,82.61,269.32Z" style="fill:#263238"></path><path d="M85.34,289.83c-2.82,1.43-4.2-5.91-1.54-9.38C83.8,280.45,89.31,287.82,85.34,289.83Z" style="fill:#455a64"></path><path d="M83.94,280.65a17.07,17.07,0,0,1,1,3.57,12.54,12.54,0,0,1,.15,3.72l-.63-3.64C84.26,283.09,84.05,281.89,83.94,280.65Z" style="fill:#263238"></path><path d="M65.58,289.47c-1.42-2.82,5.91-4.2,9.38-1.54C75,287.93,67.6,293.43,65.58,289.47Z" style="fill:#455a64"></path><path d="M74.77,288.07a17.16,17.16,0,0,1-3.58,1,12.47,12.47,0,0,1-3.71.15l3.63-.63C72.32,288.39,73.53,288.18,74.77,288.07Z" style="fill:#263238"></path><path d="M75.25,241.77c-2.67,1.68-4.71-5.5-2.38-9.2C72.87,232.57,79,239.41,75.25,241.77Z" style="fill:#455a64"></path><path d="M73,232.75a16.41,16.41,0,0,1,1.32,3.47,12.11,12.11,0,0,1,.48,3.69l-.94-3.56C73.58,235.16,73.26,234,73,232.75Z" style="fill:#263238"></path><path d="M79.16,233.38c-2.68,1.68-4.72-5.5-2.39-9.2C76.77,224.18,82.93,231,79.16,233.38Z" style="fill:#455a64"></path><path d="M76.93,224.36a16.79,16.79,0,0,1,1.33,3.47,12.43,12.43,0,0,1,.48,3.69L77.79,228C77.48,226.77,77.16,225.59,76.93,224.36Z" style="fill:#263238"></path><path d="M82.44,228c-2.78.81-2.78-6,.21-8.71C82.65,219.3,86.36,226.88,82.44,228Z" style="fill:#455a64"></path><path d="M82.75,219.5a15.49,15.49,0,0,1,.29,3.39,11.08,11.08,0,0,1-.51,3.38l.07-3.38C82.62,221.76,82.64,220.64,82.75,219.5Z" style="fill:#263238"></path><path d="M70.22,217.51c.31-3.14,7.24-.39,8.75,3.72C79,221.23,69.8,221.94,70.22,217.51Z" style="fill:#455a64"></path><path d="M78.73,221.24a16.38,16.38,0,0,1-3.56-1.06A12.6,12.6,0,0,1,72,218.31l3.4,1.42C76.49,220.21,77.62,220.67,78.73,221.24Z" style="fill:#263238"></path><path d="M72.81,258.3c-3,.85-3-6.61.33-9.5C73.14,248.8,77.1,257.11,72.81,258.3Z" style="fill:#455a64"></path><path d="M73.24,249a17,17,0,0,1,.29,3.7,12.36,12.36,0,0,1-.59,3.67l.1-3.68C73.08,251.48,73.11,250.26,73.24,249Z" style="fill:#263238"></path><path d="M78.63,270.63c-3,.85-3-6.61.33-9.49C79,261.14,82.91,269.44,78.63,270.63Z" style="fill:#455a64"></path><path d="M79.05,261.35a16.5,16.5,0,0,1,.29,3.71,12.41,12.41,0,0,1-.59,3.67l.1-3.69C78.89,263.82,78.92,262.59,79.05,261.35Z" style="fill:#263238"></path><path d="M78.1,281.44c-3-.78.74-7.2,5-8.06C83.13,273.38,82.41,282.55,78.1,281.44Z" style="fill:#455a64"></path><path d="M83.11,273.62A17.21,17.21,0,0,1,81.5,277a12.27,12.27,0,0,1-2.34,2.89l1.93-3.15C81.74,275.67,82.37,274.63,83.11,273.62Z" style="fill:#263238"></path><path d="M70.19,283.48c.25-3.15,7.23-.52,8.81,3.56C79,287,69.84,287.91,70.19,283.48Z" style="fill:#455a64"></path><path d="M78.76,287.06a17.16,17.16,0,0,1-3.58-1,12.57,12.57,0,0,1-3.24-1.81l3.42,1.36C76.5,286.06,77.64,286.51,78.76,287.06Z" style="fill:#263238"></path><path d="M80.81,212.78c1.75-2.63,6.57,3.07,6,7.41C86.77,220.19,78.35,216.49,80.81,212.78Z" style="fill:#455a64"></path><path d="M86.56,220.09a16.77,16.77,0,0,1-2.64-2.62,12.28,12.28,0,0,1-2-3.16l2.34,2.85C85.07,218.12,85.84,219.06,86.56,220.09Z" style="fill:#263238"></path><path d="M88,220.91c-2.34-1.19-5.46-2.35-7.75-.55a13.5,13.5,0,0,0-2,1.87c-4.47,5.48-7.82,13.1-6.42,20.22,3,10.71,9.92,20.12,11.81,31.2,1.33,8.73-1.56,16-11.71,14,9.91,1.48,12.42-5.29,11-13.85-2.11-11-9.09-20.29-11.93-31.09-1.44-7.55,2.14-15.15,6.94-20.77a15,15,0,0,1,2.14-1.85c2.43-1.77,5.67-.51,8,.86Z" style="fill:#455a64"></path><path d="M114.16,211.67c2.4-2.06,5.49,4.74,3.73,8.74C117.89,220.41,110.79,214.57,114.16,211.67Z" style="fill:#455a64"></path><path d="M117.7,220.26a16.62,16.62,0,0,1-1.82-3.24,12.19,12.19,0,0,1-1-3.57l1.46,3.38C116.81,218,117.3,219.08,117.7,220.26Z" style="fill:#263238"></path><path d="M101.08,215.4c.38-3.13,7.24-.2,8.64,3.94C109.72,219.34,100.54,219.82,101.08,215.4Z" style="fill:#455a64"></path><path d="M109.48,219.35A17.55,17.55,0,0,1,106,218.2a12.71,12.71,0,0,1-3.16-1.95l3.36,1.5C107.27,218.26,108.39,218.76,109.48,219.35Z" style="fill:#263238"></path><path d="M91.41,228.87c-1.78-2.61,5.3-5,9.09-2.78C100.5,226.09,93.94,232.53,91.41,228.87Z" style="fill:#455a64"></path><path d="M100.33,226.26a16.88,16.88,0,0,1-3.41,1.47,12.29,12.29,0,0,1-3.66.64l3.52-1.1C98,226.91,99.12,226.54,100.33,226.26Z" style="fill:#263238"></path><path d="M89,245.08c-2.8-1.46,2.36-6.85,6.73-6.7C95.7,238.38,92.91,247.14,89,245.08Z" style="fill:#455a64"></path><path d="M95.63,238.6a16.74,16.74,0,0,1-2.33,2.9,12.33,12.33,0,0,1-2.94,2.28l2.6-2.62C93.82,240.29,94.68,239.42,95.63,238.6Z" style="fill:#263238"></path><path d="M90.59,259.45c-3.13-.43-.08-7.24,4.09-8.57C94.68,250.88,95,260.07,90.59,259.45Z" style="fill:#455a64"></path><path d="M94.69,251.12a17.37,17.37,0,0,1-1.22,3.51,12.47,12.47,0,0,1-2,3.13L93,254.42C93.55,253.31,94.07,252.2,94.69,251.12Z" style="fill:#263238"></path><path d="M95.52,268.65c-3,.83-2.92-6.63.38-9.5C95.9,259.15,99.81,267.47,95.52,268.65Z" style="fill:#455a64"></path><path d="M96,259.37a17,17,0,0,1,.26,3.7,12.37,12.37,0,0,1-.6,3.67l.12-3.68C95.82,261.83,95.86,260.61,96,259.37Z" style="fill:#263238"></path><path d="M108.66,276.46c-1.74,2.64-6.57-3-6-7.39C102.69,269.07,111.11,272.75,108.66,276.46Z" style="fill:#455a64"></path><path d="M102.9,269.17a16.71,16.71,0,0,1,2.64,2.61,12.49,12.49,0,0,1,2,3.16l-2.34-2.85C104.4,271.14,103.62,270.2,102.9,269.17Z" style="fill:#263238"></path><path d="M109.22,227.27c-3.08-.67.46-7.24,4.71-8.26C113.93,219,113.57,228.2,109.22,227.27Z" style="fill:#455a64"></path><path d="M113.92,219.25a16.88,16.88,0,0,1-1.47,3.41,12.48,12.48,0,0,1-2.23,3l1.8-3.22C112.63,221.36,113.23,220.29,113.92,219.25Z" style="fill:#263238"></path><path d="M105.05,232.12c-2.94,1.14-3.6-6.29-.61-9.48C104.44,222.64,109.19,230.51,105.05,232.12Z" style="fill:#455a64"></path><path d="M104.56,222.84a17,17,0,0,1,.65,3.66,12.5,12.5,0,0,1-.23,3.71l-.26-3.67C104.64,225.31,104.55,224.09,104.56,222.84Z" style="fill:#263238"></path><path d="M100.28,241.08c-2.59,1.81-5-5.25-2.85-9.07C97.43,232,103.92,238.53,100.28,241.08Z" style="fill:#455a64"></path><path d="M97.59,232.18a16.6,16.6,0,0,1,1.5,3.4,12.33,12.33,0,0,1,.67,3.66l-1.13-3.51C98.26,234.56,97.88,233.4,97.59,232.18Z" style="fill:#263238"></path><path d="M101.06,251.06c-1.61,2.71-6.7-2.75-6.31-7.1C94.75,244,103.34,247.24,101.06,251.06Z" style="fill:#455a64"></path><path d="M95,244a16.36,16.36,0,0,1,2.76,2.49,11.93,11.93,0,0,1,2.11,3.06l-2.47-2.74C96.56,245.94,95.73,245,95,244Z" style="fill:#263238"></path><path d="M103.2,259.77c-.87,3-7.18-.95-7.91-5.27C95.29,254.5,104.44,255.49,103.2,259.77Z" style="fill:#455a64"></path><path d="M95.53,254.53a16.88,16.88,0,0,1,3.3,1.7,12.59,12.59,0,0,1,2.82,2.43l-3.08-2C97.54,256,96.52,255.29,95.53,254.53Z" style="fill:#263238"></path><path d="M107.48,265.92c.4,3.14-7,2-9.35-1.68C98.13,264.24,106.91,261.51,107.48,265.92Z" style="fill:#455a64"></path><path d="M98.35,264.17a17,17,0,0,1,3.71.25,12.32,12.32,0,0,1,3.55,1.11L102,264.9C100.77,264.68,99.56,264.48,98.35,264.17Z" style="fill:#263238"></path><path d="M116.77,264c2.7,1.63-2.79,6.69-7.14,6.28C109.63,270.25,113,261.67,116.77,264Z" style="fill:#455a64"></path><path d="M109.72,270a16.35,16.35,0,0,1,2.5-2.75,12.09,12.09,0,0,1,3.07-2.09l-2.75,2.45C111.62,268.45,110.71,269.27,109.72,270Z" style="fill:#263238"></path><path d="M118.76,221.19c-5.67-4.53-13.35-.6-17.26,4.38-4.12,5.24-5.58,12-6,18.56-.57,8,.36,23.38,9.87,25.66a10.2,10.2,0,0,0,9.26-2.24,10.31,10.31,0,0,1-13.93.46c-6.1-6.19-6.54-15.74-6.2-23.94.47-6.69,2-13.7,6.37-19,4.15-5,12.27-8.89,17.85-3.9Z" style="fill:#455a64"></path><path d="M126.22,229.69c-2.38,2.67-6.88-4.49-5.51-9.26C120.71,220.43,129.58,225.92,126.22,229.69Z" style="fill:#455a64"></path><path d="M120.93,220.57a19.32,19.32,0,0,1,2.55,3.36,13.7,13.7,0,0,1,1.69,3.86L123,224.22C122.29,223,121.57,221.84,120.93,220.57Z" style="fill:#263238"></path><path d="M131,231c-3.31,1.38-4.26-7-1-10.73C130,220.29,135.62,229.08,131,231Z" style="fill:#455a64"></path><path d="M130.14,220.52a18.25,18.25,0,0,1,.84,4.13,13.85,13.85,0,0,1-.15,4.21l-.4-4.16C130.31,223.31,130.17,221.93,130.14,220.52Z" style="fill:#263238"></path><path d="M130.09,240.43c-3.45-1,1-8.15,5.92-9C136,231.43,134.94,241.81,130.09,240.43Z" style="fill:#455a64"></path><path d="M136,231.7a18.65,18.65,0,0,1-1.91,3.75,13.56,13.56,0,0,1-2.74,3.21l2.28-3.51C134.37,234,135.12,232.82,136,231.7Z" style="fill:#263238"></path><path d="M125.51,252.29c-2.72-2.33,4.37-7,9.16-5.67C134.67,246.62,129.33,255.58,125.51,252.29Z" style="fill:#455a64"></path><path d="M134.53,246.85a18.41,18.41,0,0,1-3.31,2.6,13.93,13.93,0,0,1-3.84,1.76l3.54-2.22C132.1,248.25,133.28,247.51,134.53,246.85Z" style="fill:#263238"></path><path d="M120.12,264.85c-2.72-2.33,4.37-7,9.16-5.67C129.28,259.18,123.94,268.15,120.12,264.85Z" style="fill:#455a64"></path><path d="M129.14,259.41a18.92,18.92,0,0,1-3.31,2.61,14.2,14.2,0,0,1-3.84,1.75l3.54-2.22C126.71,260.81,127.89,260.07,129.14,259.41Z" style="fill:#263238"></path><path d="M114.18,278c-2.71-2.34,4.38-7,9.17-5.67C123.35,272.37,118,281.33,114.18,278Z" style="fill:#455a64"></path><path d="M123.21,272.6a19.42,19.42,0,0,1-3.32,2.6,14,14,0,0,1-3.83,1.76l3.54-2.23C120.78,274,122,273.25,123.21,272.6Z" style="fill:#263238"></path><path d="M111.35,294.51c-3.28-1.42,2.11-7.94,7.07-8.13C118.42,286.38,116,296.52,111.35,294.51Z" style="fill:#455a64"></path><path d="M118.35,286.64a19.11,19.11,0,0,1-2.39,3.47,14,14,0,0,1-3.14,2.81l2.72-3.17C116.45,288.7,117.35,287.64,118.35,286.64Z" style="fill:#263238"></path><path d="M122.83,307.32c-2.92,2.07-5.69-5.93-3.28-10.26C119.55,297.06,127,304.4,122.83,307.32Z" style="fill:#455a64"></path><path d="M119.74,297.25a19.43,19.43,0,0,1,1.72,3.84,14,14,0,0,1,.78,4.15l-1.3-4C120.51,299.94,120.07,298.62,119.74,297.25Z" style="fill:#263238"></path><path d="M132.47,213.29c2.87,2.15-3.89,7.24-8.76,6.28C123.71,219.57,128.43,210.27,132.47,213.29Z" style="fill:#455a64"></path><path d="M123.84,219.33a19.06,19.06,0,0,1,3.13-2.82,14,14,0,0,1,3.7-2L127.29,217C126.16,217.77,125,218.59,123.84,219.33Z" style="fill:#263238"></path><path d="M142.8,230.08c-1,3.43-8.13-1.2-8.88-6.1C133.92,224,144.27,225.26,142.8,230.08Z" style="fill:#455a64"></path><path d="M134.19,224a18.62,18.62,0,0,1,3.71,2,14.05,14.05,0,0,1,3.16,2.8l-3.47-2.34C136.45,225.67,135.29,224.9,134.19,224Z" style="fill:#263238"></path><path d="M141,248.44c-2.5,2.57-6.67-4.79-5.09-9.5C135.89,238.94,144.5,244.83,141,248.44Z" style="fill:#455a64"></path><path d="M136.11,239.1a18.77,18.77,0,0,1,2.39,3.47A14.12,14.12,0,0,1,140,246.5l-2-3.67C137.36,241.61,136.69,240.39,136.11,239.1Z" style="fill:#263238"></path><path d="M134.51,263.9c-3.17,1.65-4.84-6.65-1.87-10.62C132.64,253.28,139,261.56,134.51,263.9Z" style="fill:#455a64"></path><path d="M132.8,253.5a18.54,18.54,0,0,1,1.19,4,14.15,14.15,0,0,1,.22,4.21l-.76-4.11C133.21,256.27,133,254.9,132.8,253.5Z" style="fill:#263238"></path><path d="M128.49,276.71c-3.17,1.65-4.84-6.65-1.87-10.62C126.62,266.09,133,274.37,128.49,276.71Z" style="fill:#455a64"></path><path d="M126.78,266.31a18.54,18.54,0,0,1,1.19,4,13.84,13.84,0,0,1,.21,4.21l-.75-4.11C127.18,269.08,126.93,267.71,126.78,266.31Z" style="fill:#263238"></path><path d="M124.55,288.45c-2.9,2.1-5.75-5.87-3.38-10.23C121.17,278.22,128.64,285.49,124.55,288.45Z" style="fill:#455a64"></path><path d="M121.36,278.41a19.24,19.24,0,0,1,1.76,3.83,13.9,13.9,0,0,1,.82,4.14l-1.34-4C122.16,281.1,121.71,279.78,121.36,278.41Z" style="fill:#263238"></path><path d="M127.65,298c-.79,3.49-8.2-.6-9.31-5.43C118.34,292.52,128.76,293,127.65,298Z" style="fill:#455a64"></path><path d="M118.6,292.53a19.31,19.31,0,0,1,3.86,1.71,14.12,14.12,0,0,1,3.35,2.56l-3.63-2.08C121,294,119.77,293.33,118.6,292.53Z" style="fill:#263238"></path><path d="M138.26,294.94c2.73,2.32-4.35,7-9.15,5.69C129.11,300.63,134.43,291.66,138.26,294.94Z" style="fill:#455a64"></path><path d="M129.26,300.4a18.85,18.85,0,0,1,3.3-2.61,14.19,14.19,0,0,1,3.83-1.77l-3.53,2.24C131.68,299,130.51,299.74,129.26,300.4Z" style="fill:#263238"></path><path d="M118.9,222c6.74-5.56,14.62-3.22,16.61,5.47,2.2,9.38.3,19.42-3.78,28-4.72,10.78-11.14,21.19-13.07,32.92-2,12.29,10,16.49,17.68,7.71-7.77,9.47-20.3,5-18.45-7.8,1.79-11.91,8.15-22.39,13-33.22,4-8.44,6-18.23,4-27.48-1.79-8.48-9.25-10.75-16-5.62Z" style="fill:#455a64"></path><polygon points="127.76 117.82 106.63 74.25 84.94 117.01 84.05 116.56 106.65 72 128.66 117.38 127.76 117.82" style="fill:#dbdbdb"></polygon><circle cx="106.64" cy="73.13" r="2.23" style="fill:#a6a6a6"></circle><polygon points="128.13 116.78 127.37 128.78 125.56 157.34 87.13 157.34 85.33 128.78 84.56 116.78 128.13 116.78" style="fill:#FF2727"></polygon><polygon points="128.13 116.78 127.37 128.78 85.33 128.78 84.56 116.78 128.13 116.78" style="opacity:0.1"></polygon><rect x="81.93" y="112.94" width="48.84" height="9.32" style="fill:#FF2727"></rect><path d="M135,119.51c1.42-2-4-3.9-7-2.26C128,117.25,133,122.32,135,119.51Z" style="fill:#455a64"></path><path d="M128.16,117.38a13.48,13.48,0,0,0,2.63,1.18,9.72,9.72,0,0,0,2.83.54l-2.71-.9C130,117.91,129.1,117.61,128.16,117.38Z" style="fill:#263238"></path><path d="M135.39,132.67c2.32-.77-1-5.53-4.32-6C131.07,126.71,132.11,133.76,135.39,132.67Z" style="fill:#455a64"></path><path d="M131.1,126.89a12.59,12.59,0,0,0,1.42,2.5,9.35,9.35,0,0,0,2,2.11l-1.66-2.32C132.27,128.4,131.72,127.63,131.1,126.89Z" style="fill:#263238"></path><path d="M124,134.54c.49,2.39,5.61-.3,6.43-3.58C130.45,131,123.33,131.16,124,134.54Z" style="fill:#455a64"></path><path d="M130.27,131a12.37,12.37,0,0,0-2.66,1.11,9.36,9.36,0,0,0-2.32,1.7l2.51-1.37C128.63,132,129.46,131.49,130.27,131Z" style="fill:#263238"></path><path d="M120.07,143.28c.49,2.39,5.6-.3,6.43-3.58C126.5,139.7,119.38,139.9,120.07,143.28Z" style="fill:#455a64"></path><path d="M126.32,139.71a12.37,12.37,0,0,0-2.66,1.11,9.18,9.18,0,0,0-2.32,1.7l2.5-1.37C124.67,140.69,125.51,140.23,126.32,139.71Z" style="fill:#263238"></path><path d="M115.87,154c.48,2.39,5.6-.29,6.43-3.58C122.3,150.41,115.18,150.61,115.87,154Z" style="fill:#455a64"></path><path d="M122.12,150.42a12.67,12.67,0,0,0-2.66,1.11,9,9,0,0,0-2.32,1.7l2.5-1.37C120.47,151.4,121.31,151,122.12,150.42Z" style="fill:#263238"></path><path d="M120,166.31c2.19,1.1,3.26-4.58,1.2-7.27C121.2,159,116.93,164.75,120,166.31Z" style="fill:#455a64"></path><path d="M121.09,159.19a12.84,12.84,0,0,0-.78,2.77,9.6,9.6,0,0,0-.11,2.88l.48-2.81C120.84,161.09,121,160.15,121.09,159.19Z" style="fill:#263238"></path><path d="M135.31,166c1.11-2.19-4.57-3.26-7.26-1.2C128.05,164.83,133.75,169.1,135.31,166Z" style="fill:#455a64"></path><path d="M128.2,164.94a12.68,12.68,0,0,0,2.77.78,9.52,9.52,0,0,0,2.87.11l-2.81-.48C130.09,165.19,129.16,165,128.2,164.94Z" style="fill:#263238"></path><path d="M127.82,129.07c2.07,1.3,3.65-4.26,1.84-7.13C129.66,121.94,124.9,127.24,127.82,129.07Z" style="fill:#455a64"></path><path d="M129.54,122.08a12.85,12.85,0,0,0-1,2.69,9.53,9.53,0,0,0-.38,2.86l.74-2.76C129.12,124,129.37,123,129.54,122.08Z" style="fill:#263238"></path><path d="M124.79,122.57c2.08,1.3,3.66-4.27,1.85-7.13C126.64,115.44,121.87,120.74,124.79,122.57Z" style="fill:#455a64"></path><path d="M126.52,115.58a12.88,12.88,0,0,0-1,2.69,9.42,9.42,0,0,0-.37,2.85l.73-2.76C126.09,117.44,126.34,116.53,126.52,115.58Z" style="fill:#263238"></path><path d="M122.25,118.41c2.16.62,2.15-4.68-.17-6.75C122.08,111.66,119.21,117.53,122.25,118.41Z" style="fill:#455a64"></path><path d="M122,111.81a12.93,12.93,0,0,0-.23,2.63,8.88,8.88,0,0,0,.4,2.61l-.05-2.62C122.11,113.56,122.1,112.69,122,111.81Z" style="fill:#263238"></path><path d="M131.72,110.27c-.24-2.44-5.61-.3-6.78,2.88C124.94,113.15,132,113.7,131.72,110.27Z" style="fill:#455a64"></path><path d="M125.12,113.16a12.56,12.56,0,0,0,2.76-.83,9.4,9.4,0,0,0,2.49-1.44l-2.63,1.1C126.86,112.36,126,112.72,125.12,113.16Z" style="fill:#263238"></path><path d="M129.71,141.87c2.35.66,2.29-5.12-.26-7.35C129.45,134.52,126.39,141,129.71,141.87Z" style="fill:#455a64"></path><path d="M129.38,134.68a12.59,12.59,0,0,0-.22,2.87,9.54,9.54,0,0,0,.45,2.85l-.08-2.86C129.5,136.59,129.48,135.64,129.38,134.68Z" style="fill:#263238"></path><path d="M125.21,151.43c2.35.66,2.29-5.13-.26-7.36C125,144.07,121.88,150.5,125.21,151.43Z" style="fill:#455a64"></path><path d="M124.87,144.24a13.18,13.18,0,0,0-.22,2.87,9.43,9.43,0,0,0,.46,2.84L125,147.1C125,146.15,125,145.2,124.87,144.24Z" style="fill:#263238"></path><path d="M125.61,159.81c2.37-.61-.57-5.59-3.89-6.25C121.72,153.56,122.27,160.66,125.61,159.81Z" style="fill:#455a64"></path><path d="M121.73,153.74a13.5,13.5,0,0,0,1.24,2.6,9.56,9.56,0,0,0,1.82,2.24l-1.5-2.44C122.79,155.34,122.3,154.53,121.73,153.74Z" style="fill:#263238"></path><path d="M131.74,161.38c-.19-2.44-5.6-.39-6.82,2.76C124.92,164.14,132,164.82,131.74,161.38Z" style="fill:#455a64"></path><path d="M125.1,164.16a12.53,12.53,0,0,0,2.77-.78,9.44,9.44,0,0,0,2.52-1.4L127.73,163C126.85,163.39,126,163.74,125.1,164.16Z" style="fill:#263238"></path><path d="M123.51,106.6c-1.35-2-5.09,2.38-4.62,5.74C118.89,112.34,125.42,109.48,123.51,106.6Z" style="fill:#455a64"></path><path d="M119.06,112.26a13,13,0,0,0,2-2,9.56,9.56,0,0,0,1.52-2.45L120.81,110C120.21,110.74,119.61,111.47,119.06,112.26Z" style="fill:#263238"></path><path d="M117.94,112.9c1.76-1.08,4.3-2.08,6.18-.7a10.86,10.86,0,0,1,1.68,1.43c3.75,4.37,6.56,10.26,5.44,16.16-2.19,8.37-7.6,15.58-9.26,24.08-1.18,6.53.79,11.84,8.4,10.72-7.85,1.67-10.19-4-9.16-10.84,1.44-8.59,6.83-15.89,9.13-24.18,1.12-5.77-1.73-12.16-5.63-16.38-1.82-2.1-4.6-1.47-6.78-.29Z" style="fill:#455a64"></path><path d="M109.6,108c-1-2.24-5.43,1.45-5.56,4.83C104,112.82,111,111.15,109.6,108Z" style="fill:#455a64"></path><path d="M104.22,112.78a13,13,0,0,0,2.37-1.64,9.53,9.53,0,0,0,1.92-2.14l-2.16,1.86C105.63,111.48,104.9,112.09,104.22,112.78Z" style="fill:#263238"></path><path d="M117.45,115c.8-2.32-5-2.6-7.36-.19C110.09,114.84,116.33,118.29,117.45,115Z" style="fill:#455a64"></path><path d="M110.26,114.93a13,13,0,0,0,2.85.39A9.93,9.93,0,0,0,116,115l-2.86-.1C112.17,114.92,111.22,114.89,110.26,114.93Z" style="fill:#263238"></path><path d="M119.63,127.68c2.12-1.2-2-5.24-5.4-5C114.23,122.67,116.63,129.38,119.63,127.68Z" style="fill:#455a64"></path><path d="M114.3,122.85a13.38,13.38,0,0,0,1.87,2.18,9.73,9.73,0,0,0,2.34,1.68l-2.08-2C115.74,124.1,115.05,123.45,114.3,122.85Z" style="fill:#263238"></path><path d="M115.84,139.81c2.44-.07.67-5.57-2.43-6.95C113.41,132.86,112.39,139.91,115.84,139.81Z" style="fill:#455a64"></path><path d="M113.39,133a13.47,13.47,0,0,0,.64,2.81,9.71,9.71,0,0,0,1.28,2.58l-.92-2.7C114.07,134.83,113.77,133.93,113.39,133Z" style="fill:#263238"></path><path d="M109.84,149.28c2.33.76,2.5-5,0-7.36C109.89,141.92,106.56,148.22,109.84,149.28Z" style="fill:#455a64"></path><path d="M109.81,142.08a12.56,12.56,0,0,0-.34,2.86,9.53,9.53,0,0,0,.33,2.86l0-2.85C109.85,144,109.87,143.05,109.81,142.08Z" style="fill:#263238"></path><path d="M103.28,154c1.84,1.62,4.29-3.62,3-6.74C106.24,147.27,100.69,151.74,103.28,154Z" style="fill:#455a64"></path><path d="M106.1,147.39a12.4,12.4,0,0,0-1.44,2.49,9.56,9.56,0,0,0-.83,2.76L105,150C105.38,149.16,105.77,148.3,106.1,147.39Z" style="fill:#263238"></path><path d="M91.48,155c.32,2.43,5.62.1,6.67-3.12C98.15,151.89,91,151.59,91.48,155Z" style="fill:#455a64"></path><path d="M98,151.88a12.31,12.31,0,0,0-2.72.93,9.37,9.37,0,0,0-2.44,1.53l2.59-1.19C96.25,152.75,97.12,152.35,98,151.88Z" style="fill:#263238"></path><path d="M107.76,120.53c2.37.59,2.13-5.19-.49-7.34C107.27,113.19,104.41,119.71,107.76,120.53Z" style="fill:#455a64"></path><path d="M107.2,113.36a13.13,13.13,0,0,0-.13,2.87,9.4,9.4,0,0,0,.54,2.83l-.16-2.85C107.39,115.26,107.33,114.31,107.2,113.36Z" style="fill:#263238"></path><path d="M109,125.33c1.66,1.8,4.64-3.16,3.64-6.4C112.66,118.93,106.68,122.8,109,125.33Z" style="fill:#455a64"></path><path d="M112.51,119a12.82,12.82,0,0,0-1.69,2.33,9.68,9.68,0,0,0-1.11,2.66l1.43-2.47C111.61,120.73,112.09,119.91,112.51,119Z" style="fill:#263238"></path><path d="M109.31,133.19c1.19,2.14,5.26-2,5.06-5.35C114.37,127.84,107.64,130.18,109.31,133.19Z" style="fill:#455a64"></path><path d="M114.2,127.9a13.05,13.05,0,0,0-2.2,1.86,9.73,9.73,0,0,0-1.71,2.32l2-2.06C112.92,129.33,113.58,128.65,114.2,127.9Z" style="fill:#263238"></path><path d="M105.38,139.88c.21,2.44,5.6.36,6.81-2.81C112.19,137.07,105.09,136.44,105.38,139.88Z" style="fill:#455a64"></path><path d="M112,137.06a12.62,12.62,0,0,0-2.76.79,9.57,9.57,0,0,0-2.51,1.42l2.65-1.07C110.26,137.84,111.14,137.49,112,137.06Z" style="fill:#263238"></path><path d="M100.94,145.22c-.42,2.41,5.33,1.77,7.3-1C108.24,144.24,101.53,141.83,100.94,145.22Z" style="fill:#455a64"></path><path d="M108.06,144.18a13.21,13.21,0,0,0-2.88.06,9.61,9.61,0,0,0-2.78.74l2.83-.36C106.17,144.49,107.12,144.37,108.06,144.18Z" style="fill:#263238"></path><path d="M95.87,148.07c-1.34,2,4.19,3.74,7.09,2C103,150.06,97.77,145.18,95.87,148.07Z" style="fill:#455a64"></path><path d="M102.83,149.94a13.14,13.14,0,0,0-2.67-1.09,9.79,9.79,0,0,0-2.85-.43l2.74.79C101,149.47,101.88,149.74,102.83,149.94Z" style="fill:#263238"></path><path d="M90.06,143.56c-2.43.22-.33,5.6,2.85,6.79C92.91,150.35,93.5,143.25,90.06,143.56Z" style="fill:#455a64"></path><path d="M92.92,150.16a12.67,12.67,0,0,0-.81-2.76,9.7,9.7,0,0,0-1.43-2.5l1.08,2.65C92.13,148.42,92.49,149.3,92.92,150.16Z" style="fill:#263238"></path><path d="M103.17,113.07c5.55-1.65,10,3.81,11.2,8.74,1.78,7.82-1.52,15.86-5.62,22.41-2.78,4.09-7.37,9.15-12.86,7.67-2.49-.74-4.88-2.55-5.58-5.13A7.92,7.92,0,0,0,96,151.41c5.24,1.17,9.31-3.81,12-7.69,3.86-6.41,7.14-14.13,5.64-21.73-1-4.77-5-10.11-10.46-8.92Z" style="fill:#455a64"></path><path d="M90.68,117.41c1.24,2.49,6.06-2,6-5.81C96.68,111.6,88.93,113.91,90.68,117.41Z" style="fill:#455a64"></path><path d="M96.48,111.67a14.74,14.74,0,0,0-2.59,2,11,11,0,0,0-2,2.55L94.19,114C95,113.22,95.75,112.48,96.48,111.67Z" style="fill:#263238"></path><path d="M86.86,117.45c2.2,1.71,4.61-4.39,2.89-7.83C89.75,109.62,83.77,115.06,86.86,117.45Z" style="fill:#455a64"></path><path d="M89.6,109.76a14.49,14.49,0,0,0-1.46,2.92,10.85,10.85,0,0,0-.75,3.18l1.15-3C88.91,111.82,89.29,110.81,89.6,109.76Z" style="fill:#263238"></path><path d="M85.61,124.67c2.78,0,.88-6.31-2.61-7.93C83,116.74,81.7,124.72,85.61,124.67Z" style="fill:#455a64"></path><path d="M83,116.94a15.05,15.05,0,0,0,.67,3.2,11,11,0,0,0,1.4,3l-1-3.09C83.71,119,83.39,118,83,116.94Z" style="fill:#263238"></path><path d="M86.65,134.47c2.5-1.2-1.87-6.09-5.72-6.09C80.93,128.38,83.12,136.16,86.65,134.47Z" style="fill:#455a64"></path><path d="M81,128.58a14.25,14.25,0,0,0,2,2.61,10.74,10.74,0,0,0,2.51,2.09l-2.2-2.38C82.53,130.11,81.8,129.32,81,128.58Z" style="fill:#263238"></path><path d="M88.14,145c2.5-1.19-1.87-6.09-5.71-6.09C82.43,138.86,84.61,146.64,88.14,145Z" style="fill:#455a64"></path><path d="M82.49,139.06a14.74,14.74,0,0,0,2,2.62A10.74,10.74,0,0,0,87,143.77l-2.2-2.38C84,140.6,83.29,139.81,82.49,139.06Z" style="fill:#263238"></path><path d="M89.91,156c2.51-1.2-1.87-6.09-5.71-6.1C84.2,149.92,86.39,157.71,89.91,156Z" style="fill:#455a64"></path><path d="M84.26,150.12a14.74,14.74,0,0,0,1.95,2.62,11,11,0,0,0,2.52,2.09l-2.2-2.38C85.79,151.66,85.06,150.87,84.26,150.12Z" style="fill:#263238"></path><path d="M88.7,168.91c2.75-.4,0-6.37-3.64-7.51C85.06,161.4,84.83,169.48,88.7,168.91Z" style="fill:#455a64"></path><path d="M85.05,161.61a15.24,15.24,0,0,0,1.09,3.08,11.21,11.21,0,0,0,1.78,2.74l-1.39-2.93C86.06,163.53,85.6,162.56,85.05,161.61Z" style="fill:#263238"></path><path d="M77.52,176.18c1.77,2.13,5.46-3.29,4.53-7C82.05,169.16,75,173.16,77.52,176.18Z" style="fill:#455a64"></path><path d="M81.87,169.27a14.64,14.64,0,0,0-2.06,2.52,10.86,10.86,0,0,0-1.42,3L80.17,172C80.75,171.12,81.35,170.23,81.87,169.27Z" style="fill:#263238"></path><path d="M89.32,103.89c-2.58,1,1.45,6.2,5.28,6.46C94.6,110.35,93,102.44,89.32,103.89Z" style="fill:#455a64"></path><path d="M94.56,110.15a14.63,14.63,0,0,0-1.78-2.74,10.77,10.77,0,0,0-2.36-2.26l2,2.52C93.13,108.51,93.8,109.35,94.56,110.15Z" style="fill:#263238"></path><path d="M78.19,114.36c.09,2.77,6.33.74,7.88-2.77C86.07,111.59,78.07,110.45,78.19,114.36Z" style="fill:#455a64"></path><path d="M85.87,111.56a14.5,14.5,0,0,0-3.19.74,10.77,10.77,0,0,0-2.92,1.45l3.06-1C83.84,112.34,84.86,112,85.87,111.56Z" style="fill:#263238"></path><path d="M75.85,128.46c1.35,2.43,6-2.24,5.73-6.07C81.58,122.39,73.94,125,75.85,128.46Z" style="fill:#455a64"></path><path d="M81.38,122.46a14.79,14.79,0,0,0-2.49,2.11A10.88,10.88,0,0,0,77,127.2l2.24-2.34C79.94,124.08,80.69,123.3,81.38,122.46Z" style="fill:#263238"></path><path d="M77.56,141.33c2,1.88,5-4,3.55-7.56C81.11,133.77,74.69,138.68,77.56,141.33Z" style="fill:#455a64"></path><path d="M80.94,133.9a14.38,14.38,0,0,0-1.7,2.78,10.92,10.92,0,0,0-1,3.11l1.4-2.93C80.08,135.89,80.55,134.92,80.94,133.9Z" style="fill:#263238"></path><path d="M79.48,152.13c2,1.88,5-4,3.54-7.56C83,144.57,76.6,149.48,79.48,152.13Z" style="fill:#455a64"></path><path d="M82.86,144.7a14.42,14.42,0,0,0-1.71,2.78,10.9,10.9,0,0,0-1,3.11l1.4-2.93C82,146.69,82.46,145.72,82.86,144.7Z" style="fill:#263238"></path><path d="M80.05,161.71c1.75,2.16,5.49-3.23,4.6-7C84.65,154.74,77.59,158.67,80.05,161.71Z" style="fill:#455a64"></path><path d="M84.47,154.85a14.3,14.3,0,0,0-2.09,2.5,10.68,10.68,0,0,0-1.45,2.93l1.8-2.69C83.33,156.69,83.93,155.8,84.47,154.85Z" style="fill:#263238"></path><path d="M75.82,168.19c-.12,2.77,6.25,1.21,8.06-2.18C83.88,166,76,164.28,75.82,168.19Z" style="fill:#455a64"></path><path d="M83.67,166a14.58,14.58,0,0,0-3.22.49,11.12,11.12,0,0,0-3,1.24l3.14-.82C81.6,166.6,82.64,166.33,83.67,166Z" style="fill:#263238"></path><path d="M68.48,163.79c-2.5,1.19,1.85,6.1,5.69,6.11C74.17,169.9,72,162.11,68.48,163.79Z" style="fill:#455a64"></path><path d="M74.12,169.7a15.11,15.11,0,0,0-2-2.62,11,11,0,0,0-2.51-2.1l2.2,2.39C72.59,168.16,73.31,169,74.12,169.7Z" style="fill:#263238"></path><path d="M97.71,113.16c-4-5.13-10-5-13,1-2.5,4.84-3.29,10.5-3.15,15.89.88,10.94,5,21.84,3.62,32.94-1.18,9.93-11.57,10.86-15.45,2.09,3.94,8,13.82,7.35,14.69-2.2,1.09-11.08-3-21.8-3.77-32.79-.1-6.55,1.31-16.62,7.39-20.28,3.55-1.91,7.68.28,9.72,3.35Z" style="fill:#455a64"></path></g><g id="freepik--light-bulb--inject-65"><g style="opacity:0.4"><path d="M229.68,449.21c57.61,16.84,92.21-23.32,92.21-23.32,9.8-.18,33.12,3.59,33.12,3.59l23.68-62.18s-19.91-12.69-27.1-19.36c0,0,.89-53-53.32-78.76a90.83,90.83,0,0,0-23.51-7.26L287,281.36l-30.92,9.31L258,320.93H251.4v8.79l-18.54,6.18,2.57,17-31.59-9.65L198,361.79l-19.77-13.92-10.31,5.65-5.76-11.38C152.2,397.63,193.72,438.7,229.68,449.21Z" style="fill:#FF2727"></path></g><g style="opacity:0.4"><path d="M229.68,449.21c57.61,16.84,92.21-23.32,92.21-23.32,9.8-.18,33.12,3.59,33.12,3.59l23.68-62.18s-19.91-12.69-27.1-19.36c0,0,.89-53-53.32-78.76a90.6,90.6,0,0,0-23.48-7.26L288,299l-11.16,5.66L288,356.35,251.89,359l-5.32,13-16-6.78-5.15,8.94L221,368.32,194.2,397.7l-32.11-55.14C152.41,397.84,193.81,438.73,229.68,449.21Z" style="fill:#FF2727"></path></g><rect x="330.93" y="304.22" width="3" height="106.56" transform="translate(-145.97 454.72) rotate(-58.57)" style="fill:#fff"></rect><rect x="312.44" y="352.73" width="3" height="106.56" transform="translate(-141.66 642.31) rotate(-79.7)" style="fill:#fff"></rect><path d="M272.89,398.2c-3.32,0-5.82-.22-6.12-.25l.09-1c.21,0,20.91,1.86,23.59-5.17a9.88,9.88,0,0,0-.29-7.63c-10.49,1-22.37-1.78-26-6.28a4.35,4.35,0,0,1-.85-4.46c1.5-3.94,6.56-4.81,13.2-2.28,6.12,2.33,11.76,6.85,14.24,11.95.66-.07,1.32-.16,2-.26,6.79-1.09,11.36-3.86,12.86-7.8,2-5.24-1.4-12.14-6.69-18.07a22,22,0,0,1-2.61.57c-7.59,1.21-18.18-.51-21.86-5a5.65,5.65,0,0,1-.9-5.84c1.27-3.34,4.84-4.09,10-2.11s11.1,6.23,15.7,11.26c2.6-.84,4.3-2.11,4.9-3.68,3.12-8.2-14.1-18.89-14.28-19l.53-.85c.74.45,18.1,11.24,14.68,20.2-.67,1.77-2.44,3.19-5.11,4.13,5.33,6.11,8.65,13.22,6.53,18.78s-8.57,7.61-13.63,8.43c-.56.09-1.12.17-1.69.23a10.86,10.86,0,0,1,.23,8.1C289.42,397.31,279.53,398.2,272.89,398.2Zm-3.21-27.49c-2.52,0-4.62.84-5.47,3.07a3.35,3.35,0,0,0,.7,3.47c3.37,4.15,14.81,6.76,24.79,5.94-2.64-5-8.57-9.21-13.57-11.12A18.89,18.89,0,0,0,269.68,370.71Zm8.85-26.23a4,4,0,0,0-4.11,2.54,4.62,4.62,0,0,0,.74,4.85c3.45,4.25,13.61,5.84,20.92,4.67.71-.11,1.38-.25,2-.41-4.46-4.77-10.07-8.8-14.92-10.64A13.73,13.73,0,0,0,278.53,344.48Z" style="fill:#fff"></path><rect x="346.69" y="383.64" width="83.35" height="45.87" transform="translate(906.56 188.42) rotate(110.86)" style="fill:#dbdbdb"></rect><path d="M398.32,444.86c9.86-1.49,20.48-7.5,26.86-24.25s2.46-28.3-3.92-36Z" style="fill:#dbdbdb"></path><path d="M398.32,444.86a31,31,0,0,0,8.51-2.54l16.32-55.19a29.75,29.75,0,0,0-1.89-2.5Z" style="fill:#c7c7c7"></path><polygon points="359.4 442.75 398.43 363.21 394.69 361.79 355.66 441.33 359.4 442.75" style="fill:#c7c7c7"></polygon><polygon points="370.71 447.06 409.74 367.52 406 366.1 366.97 445.64 370.71 447.06" style="fill:#c7c7c7"></polygon><polygon points="382.03 451.37 421.06 371.83 417.32 370.41 378.29 449.95 382.03 451.37" style="fill:#c7c7c7"></polygon><path d="M337.26,331.92c-2.6.5-6.3-12.88-21.14-28.11-6.59-6.76-31.19-14.84-29.62-22.87S310,280.61,321.27,293C339.36,313,339.65,331.46,337.26,331.92Z" style="fill:#fff"></path><path d="M227.27,425.5c-2,5.25-10.17,2.15-8.16-3.11S229.28,420.24,227.27,425.5Z" style="fill:#fff"></path><path d="M298.45,423.19c1.1,3.71-17.07,12.74-34.81,13.18-14.73.37-31.17-4.87-30.77-8.74s23.36,2.28,33.11,1.17C278.28,427.39,297.28,419.23,298.45,423.19Z" style="fill:#fff"></path><path d="M148,451.85l7.94-8.86-8.4-7.06L152.91,414l-18.13,1.21-2.3-30.73-13.88,8-11.64-14-7.64,3-2.23-5.73L71.43,387.64,52.88,363.91,40.11,381.1h0c7.16,35,35.59,72.95,88.58,72.59h.67A99.57,99.57,0,0,0,148,451.85Z" style="fill:#FF2727;opacity:0.4"></path><path d="M148.34,451.75h0l37.08-46.58-34.61-13.33,3.54-5.87-9.51-1.45.49-16.17-13.07-.24-14.53-30.48-41.17,27.2L67.87,357l-27.77,24c7.16,35.05,35.57,73,88.59,72.61h.67A98.37,98.37,0,0,0,148.34,451.75Z" style="fill:#FF2727;opacity:0.4"></path></g><g id="freepik--speech-bubble--inject-65"><path d="M274.78,73.13A25.85,25.85,0,0,0,316,93.88l12.66,3.23-5.27-11.79a25.84,25.84,0,0,0-22.79-38A25.85,25.85,0,0,0,274.78,73.13Z" style="fill:#fff"></path><path d="M274.78,73.13c.43,21.57,24.06,32.9,41.34,20.41l12.69,3.15-.51.6L323,85.52l-.1-.21.11-.22a25.52,25.52,0,0,0-16.15-36.74c-16-4.37-32.15,8.25-32.07,24.78Zm0,0c.07-22,25.74-34.06,42.74-20,9.39,7.59,12.28,21.89,6.33,32.47l0-.42,5.23,11.81.37.83-.88-.23L316,94.23c-16.13,12.25-41,.74-41.17-21.1Z" style="fill:#263238"></path><polygon points="297.18 57.54 303.23 57.54 302.82 79.83 297.59 79.83 297.18 57.54" style="fill:#FF2727"></polygon><rect x="297.59" y="82.62" width="5.23" height="5.23" style="fill:#FF2727"></rect></g></svg>